HIERARCHY
ROOT hip
{
	OFFSET 0.000000 0.000000 0.000000 
	CHANNELS 6 Xposition Yposition Zposition Xrotation Zrotation Yrotation
	JOINT abdomen
	{
		OFFSET 0.000000 3.402643 0.000000 
		CHANNELS 3 Xrotation Zrotation Yrotation
		JOINT chest
		{
			OFFSET 0.000000 8.438565 -0.680529 
			CHANNELS 3 Xrotation Zrotation Yrotation
			JOINT neck
			{
				OFFSET 0.000000 10.207942 -0.272212 
				CHANNELS 3 Xrotation Zrotation Yrotation
				JOINT head
				{
					OFFSET 0.000000 3.130431 0.000000 
					CHANNELS 3 Xrotation Zrotation Yrotation
					End Site
					{
						OFFSET 0.000000 3.130435 0.000000 
					}
				}
			}
			JOINT lCollar
			{
				OFFSET 3.470700 6.669187 -0.816635 
				CHANNELS 3 Yrotation Zrotation Xrotation
				JOINT lShldr
				{
					OFFSET 3.198488 0.000000 0.000000 
					CHANNELS 3 Zrotation Yrotation Xrotation
					JOINT lForeArm
					{
						OFFSET 10.139888 0.000000 0.000000 
						CHANNELS 3 Yrotation Zrotation Xrotation
						JOINT lHand
						{
							OFFSET 8.370511 0.000000 0.000000 
							CHANNELS 3 Zrotation Yrotation Xrotation
							End Site
							{
								OFFSET 4.083176 0.000000 0.000000 
							}
						}
					}
				}
			}
			JOINT rCollar
			{
				OFFSET -3.470700 6.669187 -0.816635 
				CHANNELS 3 Yrotation Zrotation Xrotation
				JOINT rShldr
				{
					OFFSET -3.198488 0.000000 0.000000 
					CHANNELS 3 Zrotation Yrotation Xrotation
					JOINT rForeArm
					{
						OFFSET -10.139888 0.000000 0.000000 
						CHANNELS 3 Yrotation Zrotation Xrotation
						JOINT rHand
						{
							OFFSET -8.370511 0.000000 0.000000 
							CHANNELS 3 Zrotation Yrotation Xrotation
							End Site
							{
								OFFSET -4.083176 0.000000 0.000000 
							}
						}
					}
				}
			}
		}
	}
	JOINT lThigh
	{
		OFFSET 5.308129 -1.633274 1.361059 
		CHANNELS 3 Xrotation Zrotation Yrotation
		JOINT lShin
		{
			OFFSET -2.041588 -20.007561 0.000000 
			CHANNELS 3 Xrotation Zrotation Yrotation
			JOINT lFoot
			{
				OFFSET 0.000000 -19.190928 -1.224953 
				CHANNELS 3 Xrotation Yrotation Zrotation
				End Site
				{
					OFFSET 0.000000 -2.449906 4.627600 
				}
			}
		}
	}
	JOINT rThigh
	{
		OFFSET -5.308129 -1.633274 1.361059 
		CHANNELS 3 Xrotation Zrotation Yrotation
		JOINT rShin
		{
			OFFSET 2.041588 -20.007561 0.000000 
			CHANNELS 3 Xrotation Zrotation Yrotation
			JOINT rFoot
			{
				OFFSET 0.000000 -19.190928 -1.224953 
				CHANNELS 3 Xrotation Yrotation Zrotation
				End Site
				{
					OFFSET 0.000000 -2.449906 4.627600 
				}
			}
		}
	}
}
MOTION
Frames: 19
Frame Time: 0.033333
-4.462540 45.581604 10.363542 14.511719 7.304687 157.812500 37.858608 5.369714 -3.504290 -15.937500 10.488282 3.857422 51.063168 8.107644 2.471410 -64.443359 -11.806639 45.039066 2.000000 -2.000000 0.000000 -60.566410 -12.158202 -64.404297 -90.631912 -0.091963 -2.973928 -49.821346 30.714159 -86.187775 -2.000000 2.000000 0.000000 52.558598 17.041018 10.608333 105.317703 -1.323377 -3.026473 80.200584 -21.870644 -54.835320 -16.032314 27.158848 15.043886 42.560196 -3.947815 -3.624422 2.174155 -0.193758 -11.429785 -1.895707 -33.367493 -22.375265 59.223145 1.976191 4.040292 -24.746334 6.685113 10.549757 
-4.352296 45.526451 10.703403 15.947266 7.597657 158.253250 38.002369 6.467834 -3.288054 -15.419921 10.283203 3.732212 51.063168 8.107644 2.471410 -64.531250 -12.480469 45.039059 2.000000 -2.000000 0.000000 -63.027348 -12.060548 -62.138672 -92.738281 -0.046757 -2.868991 -49.488388 29.925951 -86.835213 -2.000000 2.000000 0.000000 49.794922 15.537107 8.535156 107.085693 -1.215571 -3.030015 80.560707 -21.451479 -54.872856 -14.871244 27.249369 14.750374 42.044128 -4.035688 -3.594462 3.019203 -0.589430 -11.492312 -1.417780 -33.346905 -21.796667 60.807434 1.857657 4.078248 -25.385345 6.009738 10.377048 
-4.251321 45.463432 11.041184 17.373047 7.871094 158.712265 38.161839 7.514204 -3.352277 -14.882813 10.244141 3.828125 51.063168 8.107644 2.471410 -64.482422 -13.349608 45.039066 2.000000 -2.000000 0.000000 -64.814453 -11.640626 -59.914078 -94.662079 0.245722 -2.885959 -49.880527 29.465101 -87.643700 -2.000000 2.000000 0.000000 47.275391 13.408203 6.894530 108.822823 -1.460995 -3.014874 80.332680 -20.929253 -54.693611 -13.660147 27.092024 14.390502 41.315662 -4.240748 -3.480903 3.980955 -1.004066 -11.745378 -0.890160 -33.658798 -21.422337 62.196674 1.741804 4.082016 -26.531757 5.288595 10.417198 
-4.135557 45.384655 11.376534 18.818359 8.144533 159.044357 38.339699 8.602681 -3.137095 -14.355468 10.048829 3.693110 51.063168 8.107644 2.471410 -64.580078 -14.042967 45.029297 2.000000 -2.000000 0.000000 -66.728516 -11.953125 -57.988277 -96.420418 0.312837 -2.909409 -50.288845 29.053995 -87.660477 -2.000000 2.000000 0.000000 45.136719 11.054688 5.224610 110.579712 -1.530932 -2.989584 80.398399 -20.531935 -54.202137 -12.568331 27.011515 14.623228 40.619286 -3.928172 -3.458971 5.005668 -1.471669 -12.024330 -0.420540 -33.633141 -20.840895 63.426571 1.648289 4.153138 -27.287445 4.668160 10.099158 
-4.035438 45.337387 11.680636 20.068361 8.417969 159.532669 38.504242 9.543530 -3.028311 -13.818359 10.009766 3.613281 51.063168 8.107644 2.471410 -64.677734 -14.716795 45.026821 2.000000 -2.000000 0.000000 -68.662109 -12.119141 -56.007912 -98.178474 0.390267 -2.923679 -51.499859 28.681255 -88.374718 -2.000000 2.000000 0.000000 43.193363 8.212891 2.667413 112.161377 -1.589992 -2.983220 80.186722 -20.196600 -53.882114 -11.561073 26.875744 14.118507 40.073574 -4.256735 -3.197938 5.973206 -1.788450 -12.258837 0.260760 -33.588367 -20.419672 64.871628 1.984990 4.325686 -28.258596 3.700368 10.097578 
-3.934904 45.282234 11.976758 21.171875 8.691407 159.981949 38.675003 10.496656 -2.922858 -13.291016 9.970703 3.702862 51.063168 8.107644 2.471410 -64.746094 -15.234373 44.794930 2.000000 -2.000000 0.000000 -70.478516 -12.128906 -53.964844 -99.760750 0.457947 -2.937384 -52.206490 28.265375 -88.475380 -2.000000 2.000000 0.000000 41.699219 5.234375 0.791906 113.743050 -1.639302 -2.976294 80.411499 -19.603157 -53.405586 -10.683192 26.860510 13.951223 39.397160 -4.012175 -3.340281 6.688330 -2.043905 -12.400815 0.360169 -33.475086 -19.826908 66.077217 1.585636 4.178859 -28.544222 3.154203 10.291079 
-3.829808 45.219212 12.249967 22.246096 8.789063 160.206573 38.634777 11.225828 -2.776913 -12.929688 9.941407 3.583984 51.063168 8.107644 2.471410 -64.833984 -15.732420 44.785156 2.000000 -2.000000 0.000000 -72.714844 -11.855470 -52.043018 -101.684708 0.701115 -2.961269 -52.643864 27.866014 -88.003136 -2.000000 2.000000 0.000000 40.839848 1.503906 -1.171617 115.324165 -1.699490 -2.950440 80.538292 -19.160521 -52.564880 -9.813791 26.527388 14.200645 38.825550 -4.025287 -3.327038 7.711497 -2.385181 -12.383434 0.496473 -33.375069 -19.324154 67.099251 1.322171 4.229967 -29.406078 2.427089 10.243082 
-3.725825 45.187691 12.506051 23.144531 8.896485 160.587448 38.803448 12.049509 -2.772249 -12.587891 9.755860 3.593750 51.063168 8.107644 2.471410 -64.873047 -16.074219 44.521481 2.000000 -2.000000 0.000000 -74.804688 -11.083984 -50.263672 -103.437836 0.778959 -2.799555 -51.964100 27.373465 -86.924843 -2.000000 2.000000 0.000000 40.283203 -1.953125 -3.115234 116.730080 -1.739052 -2.942948 81.163261 -18.708059 -52.276928 -9.130640 26.549360 14.014521 38.333355 -4.054647 -3.258290 8.330666 -2.939918 -12.640746 0.817569 -33.460262 -18.892612 68.153915 1.234267 4.246759 -30.076342 1.615749 10.654842 
-3.634038 45.116791 12.724525 23.857422 9.003906 160.763245 38.946106 12.765672 -2.617397 -12.236328 9.736330 3.486328 51.063168 8.107644 2.471410 -65.253906 -16.035154 44.440662 2.000000 -2.000000 0.000000 -77.089844 -10.087890 -48.144531 -105.537376 0.856953 -2.804079 -51.449554 26.996700 -85.802925 -2.000000 2.000000 0.000000 40.000004 -5.781250 -5.069343 118.311729 -1.798112 -2.936585 81.287445 -18.451187 -51.429649 -8.700971 26.470997 13.388983 37.809235 -4.093822 -3.228204 8.815053 -3.152942 -12.741747 0.738798 -33.332447 -18.144983 69.198380 1.136664 4.264657 -30.561790 0.855967 10.574539 
-3.522660 45.045891 12.918119 24.726564 8.935546 160.899948 38.902382 13.382504 -2.618035 -11.875000 9.697266 3.544922 51.063168 8.107644 2.471410 -65.615234 -15.966795 44.189457 2.000000 -2.000000 0.000000 -79.326172 -8.984374 -45.791019 -107.471176 0.934382 -2.818350 -50.849426 26.762747 -84.308113 -2.000000 2.000000 0.000000 40.126953 -9.765626 -7.247750 119.902321 -1.858865 -2.901302 81.622581 -17.952351 -50.765892 -7.753844 26.353233 13.583376 37.254528 -4.138364 -3.206816 9.352099 -3.327564 -12.856009 0.876197 -33.410877 -17.457449 70.276566 1.224437 4.254202 -31.344612 0.481471 10.875581 
-3.407151 45.006496 13.078389 25.439455 8.740234 160.929214 38.983204 13.758623 -2.533340 -11.523437 9.677735 3.605157 51.063168 8.107644 2.471410 -65.927742 -15.751953 44.062504 2.000000 -2.000000 0.000000 -81.494141 -7.568360 -43.427734 -109.580200 1.012941 -2.813128 -50.396454 26.144800 -83.418213 -2.000000 2.000000 0.000000 40.585941 -13.496095 -9.357748 121.295921 -2.078431 -2.826028 81.784798 -17.257441 -50.103031 -7.294745 26.051060 13.186175 36.929466 -4.142539 -3.191595 9.985727 -3.438014 -13.275924 1.198553 -33.490055 -17.034679 71.149773 0.960808 4.308981 -32.136234 -0.069171 11.088258 
-3.278021 44.927719 13.192140 26.152344 8.671876 161.035172 39.092583 14.202019 -2.598146 -11.347656 9.667969 3.458671 51.063168 8.107644 2.471410 -66.074219 -15.380857 43.835304 2.000000 -2.000000 0.000000 -83.632813 -5.859375 -41.192402 -111.699257 1.090935 -2.817652 -49.589691 25.657169 -81.715141 -2.000000 2.000000 0.000000 41.289063 -17.558594 -11.428728 123.054794 -2.095670 -2.866140 82.283714 -17.091167 -49.321537 -6.591717 25.833313 13.124610 36.573528 -4.167711 -3.161078 10.197070 -3.633398 -13.556251 1.511091 -33.587669 -16.331970 72.046165 1.156255 4.516416 -32.933552 -0.835281 11.201233 
-3.126119 44.872566 13.279276 26.855469 8.476563 161.075653 38.982418 14.464177 -2.685512 -11.328126 9.833985 3.525391 51.063168 8.107644 2.471410 -66.435547 -15.322264 43.935547 2.000000 -2.000000 0.000000 -85.683594 -4.189453 -38.759766 -113.983765 1.179808 -2.803452 -49.135799 25.029833 -80.864075 -2.000000 2.000000 0.000000 42.675781 -21.376953 -14.433595 124.282372 -2.179313 -2.773207 82.397919 -16.530422 -48.590145 -5.928126 25.566174 13.118271 36.206921 -4.182756 -3.174330 10.722731 -3.943635 -13.892466 1.453795 -33.631252 -15.762707 72.730583 0.921906 4.390387 -33.465729 -0.993250 11.476806 
-2.986309 44.809547 13.324638 27.373047 8.281250 161.065857 38.989094 14.598540 -2.567964 -11.152344 9.824219 3.544922 51.063168 8.107644 2.471410 -66.601563 -15.292968 44.160160 2.000000 -2.000000 0.000000 -87.607422 -2.265625 -36.543358 -116.093323 1.257237 -2.817734 -48.332993 24.621340 -79.239143 -2.000000 2.000000 0.000000 44.423828 -25.058594 -17.382813 125.525368 -2.027990 -2.852438 82.792625 -16.162346 -47.548515 -5.439658 25.425179 12.680596 36.058792 -4.300452 -3.159456 10.815451 -3.801494 -14.610632 1.521109 -33.537979 -14.812194 73.443993 0.775335 4.315677 -33.714336 -1.811251 12.082583 
-2.819387 44.754398 13.350094 28.076172 8.076172 161.085358 38.879719 14.857229 -2.643657 -10.976563 9.804688 3.398438 51.063168 8.107644 2.471410 -66.445313 -15.498046 44.509113 2.000000 -2.000000 0.000000 -89.257813 -0.507813 -34.257813 -118.186096 1.504789 -2.597455 -47.404671 24.041430 -78.140907 -2.000000 2.000000 0.000000 46.562500 -28.613281 -20.605467 127.282272 -2.224970 -2.492661 83.430191 -15.661871 -46.930904 -4.736500 24.977573 12.653571 35.890911 -4.310040 -3.138963 11.015062 -3.964153 -14.839359 1.658069 -33.794750 -14.140680 74.154236 1.058608 4.598298 -34.463009 -2.438893 12.302528 
-2.662544 44.675617 13.338520 28.388672 7.724609 160.782562 38.704815 14.896004 -2.691722 -10.976563 9.804688 3.398438 51.063168 8.107644 2.471410 -66.298828 -15.693357 44.863285 2.000000 -2.000000 0.000000 -90.751953 1.523438 -32.070053 -120.119026 1.583915 -2.582500 -46.804577 23.594088 -76.573730 -2.000000 2.000000 0.000000 48.955078 -31.894531 -24.541018 128.324600 -2.268186 -2.758803 83.796898 -15.272611 -45.860172 -4.395001 24.893864 13.071527 35.724163 -4.212405 -3.086154 10.835571 -4.562000 -14.592574 1.980790 -34.030029 -13.722996 74.662010 0.648453 4.354064 -35.164421 -2.352709 12.612149 
-2.489348 44.636227 13.307972 28.906252 7.392579 160.694611 38.724072 14.984986 -2.846111 -10.800779 9.794922 3.439161 51.063168 8.107644 2.471410 -66.142586 -15.888670 45.205078 2.000000 -2.000000 0.000000 -92.246094 3.583984 -30.292971 -122.220406 1.813368 -2.674072 -46.102188 23.074062 -75.590660 -2.000000 2.000000 0.000000 51.748047 -34.804688 -29.126665 129.742477 -2.157554 -2.811059 84.311317 -15.019285 -44.730194 -3.867663 24.536377 13.003170 35.723816 -4.212408 -3.095851 11.111124 -4.614070 -14.964451 2.303129 -34.273338 -13.287261 75.188545 0.599631 4.363036 -35.339787 -2.707928 12.952771 
-2.319591 44.581089 13.245368 29.218750 7.041016 160.567596 38.539524 15.020332 -2.885036 -10.800779 9.794922 3.263380 51.063168 8.107644 2.471410 -65.625008 -16.142576 45.458988 2.000000 -2.000000 0.000000 -93.535156 5.732421 -28.759768 -124.165001 1.723363 -2.707951 -45.652882 22.663244 -74.330566 -2.000000 2.000000 0.000000 56.142578 -37.548828 -35.400391 131.498520 -2.357748 -2.060747 85.011024 -14.463860 -43.624161 -3.564672 24.334261 12.536776 35.691772 -4.319641 -3.163786 11.113258 -4.246954 -15.759202 2.078785 -34.489838 -12.522278 75.725266 0.726674 4.484245 -35.885529 -2.997652 13.067409 
-2.147542 44.518055 13.171077 29.550783 6.728516 160.421066 38.337669 14.924754 -3.050735 -10.781250 9.960938 3.312236 51.063168 8.107644 2.471410 -65.312500 -16.367186 45.947269 2.000000 -2.000000 0.000000 -94.599609 7.578125 -27.195976 -125.922150 1.792738 -2.692429 -45.092144 22.169535 -73.000427 -2.000000 2.000000 0.000000 61.640625 -39.492188 -44.390972 132.911942 -2.235742 -2.307496 85.937218 -13.882739 -41.655827 -2.988778 23.921494 13.180776 35.723133 -4.212384 -3.115238 10.812941 -4.864048 -15.508458 2.382348 -34.744736 -11.903370 76.076180 0.697433 4.496192 -36.428486 -3.370899 13.421171 
